<svg width="24" height="24" viewBox="0 0 24 24" fill="none" xmlns="http://www.w3.org/2000/svg">
<path d="M14.672 15.2385C15.874 14.9885 16.9645 14.5555 17.812 13.9195C19.26 12.834 20 11.157 20 9.49999C20 8.33799 19.5595 7.25299 18.7965 6.33399C18.3715 5.82199 19.6145 2.00049 18.51 2.51499C17.405 3.02999 15.785 4.16899 14.9365 3.91749C13.9828 3.63815 12.9938 3.49754 12 3.49999C11.1 3.49999 10.234 3.61149 9.4265 3.81699C8.2525 4.11599 7.1295 2.99999 6 2.51499C4.87 2.02999 5.487 5.98199 5.1515 6.39749C4.42 7.30249 4 8.36499 4 9.49999C4 11.157 4.895 12.834 6.343 13.92C7.308 14.643 8.517 15.104 9.87 15.331M9.87 15.331C9.2905 15.9685 9.001 16.574 9.001 17.147V21.5055M14.6725 15.2385C15.221 15.9585 15.4955 16.6055 15.4955 17.1785V21.5055M3 15.6075C3.4495 15.6625 3.783 15.8695 4 16.2275C4.326 16.765 5.537 18.759 6.9125 18.759H9.001" stroke="#FB4B04" strokeWidth="2.08333" strokeLinecap="round"/>
</svg>
