<svg width="174" height="69" viewBox="0 0 174 69" fill="none" xmlns="http://www.w3.org/2000/svg">
<path d="M52.5202 54.0002C52.1169 54.0002 51.7868 53.8719 51.5301 53.6152C51.3101 53.3585 51.2002 53.0469 51.2002 52.6802V49.5452C51.2002 49.2152 51.2734 48.9035 51.4201 48.6102C51.6034 48.2802 51.7869 48.0052 51.9702 47.7852L66.0501 31.1202H52.9601C52.5934 31.1202 52.2819 31.0102 52.0252 30.7902C51.7685 30.5335 51.6401 30.2035 51.6401 29.8002V26.7202C51.6401 26.3535 51.7685 26.0419 52.0252 25.7852C52.2819 25.5285 52.5934 25.4002 52.9601 25.4002H73.8052C74.2085 25.4002 74.5201 25.5285 74.7401 25.7852C74.9968 26.0419 75.1252 26.3535 75.1252 26.7202V30.0752C75.1252 30.4052 75.0518 30.6985 74.9051 30.9552C74.7584 31.2119 74.5752 31.4869 74.3552 31.7802L60.6051 48.2802H74.9601C75.3268 48.2802 75.6384 48.4085 75.8951 48.6652C76.1518 48.8852 76.2801 49.1969 76.2801 49.6002V52.6802C76.2801 53.0469 76.1518 53.3585 75.8951 53.6152C75.6384 53.8719 75.3268 54.0002 74.9601 54.0002H52.5202ZM90.154 54.5502C88.2473 54.5502 86.524 54.1835 84.984 53.4502C83.444 52.6802 82.2155 51.6719 81.2989 50.4252C80.4189 49.1419 79.9789 47.7119 79.9789 46.1352C79.9789 43.5685 81.0056 41.5335 83.059 40.0302C85.149 38.4902 87.899 37.4635 91.309 36.9502L98.844 35.8502V34.6952C98.844 33.1552 98.4589 31.9635 97.6889 31.1202C96.9189 30.2769 95.5989 29.8552 93.7289 29.8552C92.4089 29.8552 91.3273 30.1302 90.484 30.6802C89.6773 31.1935 89.0723 31.8902 88.669 32.7702C88.3756 33.2469 87.954 33.4852 87.404 33.4852H83.059C82.6556 33.4852 82.344 33.3752 82.124 33.1552C81.9406 32.9352 81.8489 32.6419 81.8489 32.2752C81.8856 31.6885 82.1239 30.9735 82.5639 30.1302C83.0039 29.2869 83.7006 28.4802 84.654 27.7102C85.6073 26.9035 86.8355 26.2252 88.3389 25.6752C89.8422 25.1252 91.6572 24.8502 93.7839 24.8502C96.0939 24.8502 98.0373 25.1435 99.614 25.7302C101.227 26.2802 102.51 27.0319 103.464 27.9852C104.417 28.9385 105.114 30.0569 105.554 31.3402C105.994 32.6235 106.214 33.9802 106.214 35.4102V52.6802C106.214 53.0469 106.085 53.3585 105.829 53.6152C105.572 53.8719 105.26 54.0002 104.894 54.0002H100.439C100.035 54.0002 99.7055 53.8719 99.4489 53.6152C99.2289 53.3585 99.1189 53.0469 99.1189 52.6802V50.5352C98.6422 51.2319 98.0006 51.8919 97.194 52.5152C96.3873 53.1019 95.3973 53.5969 94.224 54.0002C93.0873 54.3669 91.7306 54.5502 90.154 54.5502ZM92.024 49.3252C93.3073 49.3252 94.4623 49.0502 95.489 48.5002C96.5523 47.9502 97.3772 47.1069 97.9639 45.9702C98.5872 44.7969 98.899 43.3302 98.899 41.5702V40.4152L93.399 41.2952C91.2356 41.6252 89.6223 42.1569 88.559 42.8902C87.4956 43.6235 86.9639 44.5219 86.9639 45.5852C86.9639 46.3919 87.2023 47.0885 87.679 47.6752C88.1923 48.2252 88.8339 48.6469 89.6039 48.9402C90.3739 49.1969 91.1806 49.3252 92.024 49.3252ZM114.59 54.0002C114.223 54.0002 113.911 53.8719 113.655 53.6152C113.398 53.3585 113.27 53.0469 113.27 52.6802V26.7752C113.27 26.3719 113.398 26.0419 113.655 25.7852C113.911 25.5285 114.223 25.4002 114.59 25.4002H119.045C119.411 25.4002 119.723 25.5285 119.98 25.7852C120.273 26.0419 120.42 26.3719 120.42 26.7752V29.0302C121.263 27.8569 122.345 26.9585 123.665 26.3352C125.021 25.7119 126.58 25.4002 128.34 25.4002H130.595C130.998 25.4002 131.31 25.5285 131.53 25.7852C131.786 26.0419 131.915 26.3535 131.915 26.7202V30.6802C131.915 31.0469 131.786 31.3585 131.53 31.6152C131.31 31.8719 130.998 32.0002 130.595 32.0002H126.305C124.545 32.0002 123.17 32.4952 122.18 33.4852C121.226 34.4752 120.75 35.8319 120.75 37.5552V52.6802C120.75 53.0469 120.621 53.3585 120.365 53.6152C120.108 53.8719 119.778 54.0002 119.375 54.0002H114.59ZM149.129 54.0002C146.929 54.0002 145.078 53.6152 143.574 52.8452C142.071 52.0752 140.953 50.9385 140.219 49.4352C139.486 47.8952 139.119 45.9885 139.119 43.7152V31.2302H134.774C134.408 31.2302 134.096 31.1019 133.839 30.8452C133.583 30.5885 133.454 30.2769 133.454 29.9102V26.7202C133.454 26.3535 133.583 26.0419 133.839 25.7852C134.096 25.5285 134.408 25.4002 134.774 25.4002H139.119V16.2702C139.119 15.9035 139.229 15.5919 139.449 15.3352C139.706 15.0785 140.036 14.9502 140.439 14.9502H144.894C145.261 14.9502 145.573 15.0785 145.829 15.3352C146.086 15.5919 146.214 15.9035 146.214 16.2702V25.4002H153.089C153.456 25.4002 153.768 25.5285 154.024 25.7852C154.281 26.0419 154.409 26.3535 154.409 26.7202V29.9102C154.409 30.2769 154.281 30.5885 154.024 30.8452C153.768 31.1019 153.456 31.2302 153.089 31.2302H146.214V43.1652C146.214 44.6685 146.471 45.8419 146.984 46.6852C147.534 47.5285 148.469 47.9502 149.789 47.9502H153.584C153.951 47.9502 154.263 48.0785 154.519 48.3352C154.776 48.5919 154.904 48.9035 154.904 49.2702V52.6802C154.904 53.0469 154.776 53.3585 154.519 53.6152C154.263 53.8719 153.951 54.0002 153.584 54.0002H149.129Z" fill="#333333"/>
<path d="M165.773 54.3711C164.706 54.3711 163.788 53.9935 163.02 53.2383C162.251 52.4701 161.867 51.5456 161.867 50.4648C161.867 49.3971 162.251 48.4857 163.02 47.7305C163.788 46.9622 164.706 46.5781 165.773 46.5781C166.841 46.5781 167.759 46.9622 168.527 47.7305C169.296 48.4857 169.68 49.3971 169.68 50.4648C169.68 51.181 169.497 51.8385 169.133 52.4375C168.781 53.0234 168.312 53.4922 167.727 53.8437C167.141 54.1953 166.49 54.3711 165.773 54.3711Z" fill="#333333"/>
<path d="M25 56C20.8373 56 17.0831 55.0417 13.7374 53.125C10.3917 51.1667 7.7657 48.4792 5.85942 45.0625C3.95314 41.6042 3 37.75 3 33.5C3 29.25 3.95314 25.4167 5.85942 22C7.7657 18.5417 10.3917 15.8542 13.7374 13.9375C17.0831 11.9792 20.8373 11 25 11C29.1627 11 32.9169 11.9792 36.2626 13.9375C39.6083 15.8542 42.2343 18.5208 44.1406 21.9375C46.0469 25.3542 47 29.2083 47 33.5C47 37.7917 46.0469 41.6458 44.1406 45.0625C42.2343 48.4792 39.6083 51.1667 36.2626 53.125C32.9169 55.0417 29.1627 56 25 56ZM25 48.875C27.7233 48.875 30.1742 48.2292 32.3528 46.9375C34.5314 45.6042 36.2432 43.7708 37.4881 41.4375C38.7329 39.0625 39.3554 36.4167 39.3554 33.5C39.3554 30.5833 38.7329 27.9583 37.4881 25.625C36.2432 23.25 34.5314 21.4167 32.3528 20.125C30.1742 18.7917 27.7233 18.125 25 18.125C22.2767 18.125 19.8258 18.7917 17.6472 20.125C15.4686 21.4167 13.7568 23.25 12.5119 25.625C11.2671 27.9583 10.6446 30.5833 10.6446 33.5C10.6446 36.4167 11.2671 39.0625 12.5119 41.4375C13.7568 43.7708 15.4686 45.6042 17.6472 46.9375C19.8258 48.2292 22.2767 48.875 25 48.875Z" fill="#333333"/>
<path d="M25.5 4V64" stroke="#333333" stroke-width="5"/>
</svg>
